# xmcd CD database file
#
# Track frame offsets:
#	183
#	8960
#	19843
#	36958
#	49288
#	64803
#	79658
#	90745
#	99953
#	127175
#	138638
#	144123
#	165420
#	178848
#	191833
#	202883
#	226023
#	239023
#
# Disc length: 3375 seconds
#
# Revision: 4
# Processed by: cddbd v1.5.2PL0 Copyright (c) Steve Scherf et al.
# Submitted via: CDex 1.51
#
DISCID=f50d2d12
DTITLE=Count Basie - The Golden Years - Vol 1  {1937}
DYEAR=1993
DGENRE=Jazz
TTITLE0=Moten Swing
TTITLE1=Shout and Feel It
TTITLE2=The You And Me That Used To Be
TTITLE3=The Count Steps In
TTITLE4=They Can't Take That Away From Me
TTITLE5=I'll Always Be In Love With You
TTITLE6=When My Dreamboat Come Home
TTITLE7=Swing ! Brother Swing !
TTITLE8=Bugle Blues
TTITLE9=I Got Rhythm
TTITLE10=Moten Swing
TTITLE11=One O'Clock Jump
TTITLE12=I Can't Get Started
TTITLE13=A Study In Brown
TTITLE14=Rhythm In My Nursery Rhymes
TTITLE15=John's Idea
TTITLE16=Good Morning Blues
TTITLE17=Dinah
EXTD=YEAR: 1993
EXTT0=
EXTT1=
EXTT2=Jimmy Rushing \n
EXTT3=
EXTT4=Billie Holiday\n
EXTT5=
EXTT6=Jimmy Rushing\n
EXTT7=Billie Holiday\n
EXTT8=
EXTT9=
EXTT10=
EXTT11=
EXTT12=Billie Holiday\n
EXTT13=
EXTT14=Jimmy Rushing\n
EXTT15=
EXTT16=Jimmy Rushing\n
EXTT17=Jimmy Rushing\n
PLAYORDER=
